<svg width="21" height="24" viewBox="0 0 21 24" fill="none" xmlns="http://www.w3.org/2000/svg">
<path d="M15.9575 18.0085C18.3687 16.3778 19.9509 13.6644 19.9509 10.5849C19.9509 5.59293 15.8048 1.5459 10.6907 1.5459C5.57651 1.5459 1.43042 5.59293 1.43042 10.5849C1.43042 13.6644 3.01259 16.3778 5.42377 18.0085M6.94506 13.8929C6.07983 13.0183 5.54608 11.844 5.54608 10.5495C5.54608 7.85018 7.84963 5.66156 10.6907 5.66156C13.5317 5.66156 15.8352 7.85018 15.8352 10.5495C15.8352 11.8448 15.3015 13.0183 14.4363 13.8929M10.6907 22.1242C9.55415 22.1242 8.63283 21.2029 8.63283 20.0664V18.0085C8.63283 16.872 9.55415 15.9507 10.6907 15.9507C11.8272 15.9507 12.7485 16.872 12.7485 18.0085V20.0664C12.7485 21.2029 11.8272 22.1242 10.6907 22.1242ZM11.7196 10.8061C11.7196 11.3744 11.2589 11.8351 10.6907 11.8351C10.1224 11.8351 9.66175 11.3744 9.66175 10.8061C9.66175 10.2379 10.1224 9.77722 10.6907 9.77722C11.2589 9.77722 11.7196 10.2379 11.7196 10.8061Z" stroke="black" stroke-width="2" stroke-linecap="round" stroke-linejoin="round"/>
</svg>
