<svg width="23" height="23" viewBox="0 0 23 23" fill="none" xmlns="http://www.w3.org/2000/svg">
<path d="M1.08521 7.56099C1.08521 6.02569 2.32981 4.78108 3.86511 4.78108C4.66281 4.78108 5.37102 4.27064 5.62327 3.51387L5.71533 3.23771C5.75874 3.10748 5.78044 3.04236 5.80366 2.9846C6.10019 2.24699 6.79506 1.74616 7.58858 1.6981C7.65073 1.69434 7.71937 1.69434 7.85664 1.69434H14.8921C15.0294 1.69434 15.098 1.69434 15.1601 1.6981C15.9537 1.74616 16.6485 2.24699 16.9451 2.9846C16.9683 3.04236 16.99 3.10748 17.0334 3.23771L17.1255 3.51387C17.3777 4.27064 18.0859 4.78108 18.8836 4.78108C20.4189 4.78108 21.6635 6.02569 21.6635 7.56099V16.3049C21.6635 18.0337 21.6635 18.898 21.3271 19.5583C21.0311 20.1392 20.5589 20.6114 19.9781 20.9073C19.3178 21.2437 18.4535 21.2437 16.7247 21.2437H6.024C4.29526 21.2437 3.43089 21.2437 2.7706 20.9073C2.18979 20.6114 1.71758 20.1392 1.42164 19.5583C1.08521 18.898 1.08521 18.0337 1.08521 16.3049V7.56099Z" stroke="black" stroke-width="2" stroke-linecap="round" stroke-linejoin="round"/>
<path d="M11.3744 16.6136C13.9315 16.6136 16.0045 14.5406 16.0045 11.9835C16.0045 9.42635 13.9315 7.35337 11.3744 7.35337C8.81722 7.35337 6.74424 9.42635 6.74424 11.9835C6.74424 14.5406 8.81722 16.6136 11.3744 16.6136Z" stroke="black" stroke-width="2" stroke-linecap="round" stroke-linejoin="round"/>
</svg>
