<svg width="24" height="25" viewBox="0 0 24 25" fill="none" xmlns="http://www.w3.org/2000/svg">
<g clip-path="url(#clip0_1_2303)">
<path d="M16.8225 0.935547H12.7778V17.2833C12.7778 19.2312 11.2222 20.8312 9.28626 20.8312C7.35034 20.8312 5.79469 19.2312 5.79469 17.2833C5.79469 15.3703 7.31577 13.8051 9.18257 13.7355V9.63121C5.06872 9.70075 1.75 13.0747 1.75 17.2833C1.75 21.5269 5.13786 24.9355 9.32085 24.9355C13.5038 24.9355 16.8916 21.4921 16.8916 17.2833V8.90075C18.4127 10.0138 20.2795 10.6747 22.25 10.7095V6.60511C19.2079 6.50077 16.8225 3.99641 16.8225 0.935547Z" fill="#0B1E15"/>
</g>
<defs>
<clipPath id="clip0_1_2303">
<rect width="24" height="24" fill="white" transform="translate(0 0.935547)"/>
</clipPath>
</defs>
</svg>
