<svg width="24" height="22" viewBox="0 0 24 22" fill="none" xmlns="http://www.w3.org/2000/svg">
<path d="M22.2892 7.84241C22.2892 7.21908 22.2892 6.90741 22.1659 6.76309C22.0589 6.63787 21.8985 6.57141 21.7343 6.58433C21.5451 6.59922 21.3247 6.81961 20.884 7.26037L17.1446 10.9998L20.884 14.7392C21.3247 15.1799 21.5451 15.4003 21.7343 15.4152C21.8985 15.4281 22.0589 15.3617 22.1659 15.2365C22.2892 15.0921 22.2892 14.7805 22.2892 14.1571V7.84241Z" stroke="#0B1E15" stroke-width="2" stroke-linecap="round" stroke-linejoin="round"/>
<path d="M1.71085 8.73616C1.71085 7.00742 1.71085 6.14305 2.04728 5.48276C2.34322 4.90195 2.81543 4.42974 3.39624 4.1338C4.05653 3.79736 4.9209 3.79736 6.64964 3.79736H12.2058C13.9345 3.79736 14.7989 3.79736 15.4592 4.1338C16.04 4.42974 16.5122 4.90195 16.8081 5.48276C17.1446 6.14305 17.1446 7.00742 17.1446 8.73616V13.2634C17.1446 14.9921 17.1446 15.8565 16.8081 16.5168C16.5122 17.0976 16.04 17.5698 15.4592 17.8657C14.7989 18.2022 13.9345 18.2022 12.2058 18.2022H6.64964C4.9209 18.2022 4.05653 18.2022 3.39624 17.8657C2.81543 17.5698 2.34322 17.0976 2.04728 16.5168C1.71085 15.8565 1.71085 14.9921 1.71085 13.2634V8.73616Z" stroke="#0B1E15" stroke-width="2" stroke-linecap="round" stroke-linejoin="round"/>
</svg>
