<svg width="22" height="24" viewBox="0 0 22 24" fill="none" xmlns="http://www.w3.org/2000/svg">
<path d="M6.5 3.2H6.28C4.43183 3.2 3.50774 3.2 2.80183 3.55968C2.1809 3.87606 1.67606 4.3809 1.35968 5.00183C1 5.70774 1 6.63183 1 8.48V9.8M6.5 3.2H15.3M6.5 3.2V1M6.5 3.2V5.4M15.3 3.2H15.52C17.3682 3.2 18.2923 3.2 18.9982 3.55968C19.6191 3.87606 20.1239 4.3809 20.4403 5.00183C20.8 5.70774 20.8 6.63183 20.8 8.48V9.8M15.3 3.2V1M15.3 3.2V5.4M1 9.8V17.72C1 19.5682 1 20.4923 1.35968 21.1982C1.67606 21.8191 2.1809 22.3239 2.80183 22.6403C3.50774 23 4.43183 23 6.28 23H11.45M1 9.8H20.8M20.8 9.8V11.45M17.5 21.9V18.6M17.5 18.6V15.3M17.5 18.6H14.2M17.5 18.6H20.8" stroke="#0B1E15" stroke-opacity="0.6" stroke-width="2" stroke-linecap="round" stroke-linejoin="round"/>
</svg>
