<svg width="44" height="28" viewBox="0 0 44 28" fill="none" xmlns="http://www.w3.org/2000/svg">
<path d="M18.434 8.24C16.466 8.18533 14.99 8.29466 14.006 8.568C13.022 8.84133 12.3387 9.306 11.956 9.962C11.628 10.5633 11.464 11.4927 11.464 12.75C14.4707 12.75 16.7393 13.3787 18.27 14.636C19.8553 15.8387 20.648 17.6427 20.648 20.048C20.648 22.5627 19.8553 24.4487 18.27 25.706C16.6847 26.9633 14.1973 27.592 10.808 27.592C7.364 27.592 4.822 26.8813 3.182 25.46C1.59667 24.0387 0.804 21.7427 0.804 18.572C0.804 12.2307 1.97933 7.69333 4.33 4.96C6.73533 2.22666 10.4253 0.859997 15.4 0.859997C16.0013 0.859997 17.0127 0.914664 18.434 1.024V8.24ZM40.82 8.24C38.852 8.18533 37.376 8.29466 36.392 8.568C35.408 8.84133 34.7247 9.306 34.342 9.962C34.014 10.5633 33.85 11.4927 33.85 12.75C36.8567 12.75 39.1253 13.3787 40.656 14.636C42.2413 15.8387 43.034 17.6427 43.034 20.048C43.034 22.5627 42.2413 24.4487 40.656 25.706C39.0707 26.9633 36.5833 27.592 33.194 27.592C29.75 27.592 27.208 26.8813 25.568 25.46C23.9827 24.0387 23.19 21.7427 23.19 18.572C23.19 12.2307 24.3653 7.69333 26.716 4.96C29.1213 2.22666 32.8113 0.859997 37.786 0.859997C38.3873 0.859997 39.3987 0.914664 40.82 1.024V8.24Z" fill="#F2A900"/>
</svg>
