<svg width="26" height="26" viewBox="0 0 26 26" fill="none" xmlns="http://www.w3.org/2000/svg">
<path d="M14.7799 2.83104V7.08101C14.7799 7.65726 14.7799 7.94538 14.892 8.16548C14.9907 8.35908 15.1481 8.51649 15.3417 8.61513C15.5618 8.72728 15.8499 8.72728 16.4261 8.72728H20.6761M16.8377 13.8718H8.60639M16.8377 17.9874H8.60639M10.6642 9.75612H8.60639M14.7799 2.55371H9.42952C7.70078 2.55371 6.83641 2.55371 6.17612 2.89015C5.59531 3.18608 5.12309 3.6583 4.82716 4.2391C4.49072 4.8994 4.49072 5.76377 4.49072 7.49251V18.1932C4.49072 19.922 4.49072 20.7863 4.82716 21.4466C5.12309 22.0274 5.59531 22.4997 6.17612 22.7956C6.83641 23.132 7.70078 23.132 9.42952 23.132H16.0146C17.7433 23.132 18.6077 23.132 19.268 22.7956C19.8488 22.4997 20.321 22.0274 20.6169 21.4466C20.9534 20.7863 20.9534 19.922 20.9534 18.1932V8.7272L14.7799 2.55371Z" stroke="black" stroke-width="2" stroke-linecap="round" stroke-linejoin="round"/>
</svg>
