<?xml version="1.0" encoding="utf-8"?><svg width="24" height="25" viewBox="0 0 24 25" fill="none" xmlns="http://www.w3.org/2000/svg">
<g clip-path="url(#clip0_1_2301)">
<path d="M22.2234 0.935547H1.77187C0.792187 0.935547 0 1.70898 0 2.66523V23.2012C0 24.1574 0.792187 24.9355 1.77187 24.9355H22.2234C23.2031 24.9355 24 24.1574 24 23.2059V2.66523C24 1.70898 23.2031 0.935547 22.2234 0.935547ZM7.12031 21.3871H3.55781V9.93086H7.12031V21.3871ZM5.33906 8.36992C4.19531 8.36992 3.27188 7.44648 3.27188 6.30742C3.27188 5.16836 4.19531 4.24492 5.33906 4.24492C6.47813 4.24492 7.40156 5.16836 7.40156 6.30742C7.40156 7.4418 6.47813 8.36992 5.33906 8.36992ZM20.4516 21.3871H16.8937V15.8184C16.8937 14.4918 16.8703 12.7809 15.0422 12.7809C13.1906 12.7809 12.9094 14.2293 12.9094 15.7246V21.3871H9.35625V9.93086H12.7687V11.4965H12.8156C13.2891 10.5965 14.4516 9.64492 16.1813 9.64492C19.7859 9.64492 20.4516 12.0168 20.4516 15.1012V21.3871Z" fill="#0B1E15"/>
</g>
<defs>
<clipPath id="clip0_1_2301">
<rect width="24" height="24" fill="white" transform="translate(0 0.935547)"/>
</clipPath>
</defs>
</svg>
