<?xml version="1.0" encoding="utf-8"?><svg width="24" height="25" viewBox="0 0 24 25" fill="none" xmlns="http://www.w3.org/2000/svg">
<g clip-path="url(#clip0_1_2302)">
<path d="M12 3.09648C15.2063 3.09648 15.5859 3.11055 16.8469 3.1668C18.0188 3.21836 18.6516 3.41523 19.0734 3.5793C19.6313 3.79492 20.0344 4.05742 20.4516 4.47461C20.8734 4.89648 21.1313 5.29492 21.3469 5.85273C21.5109 6.27461 21.7078 6.91211 21.7594 8.0793C21.8156 9.34492 21.8297 9.72461 21.8297 12.9262C21.8297 16.1324 21.8156 16.5121 21.7594 17.773C21.7078 18.9449 21.5109 19.5777 21.3469 19.9996C21.1313 20.5574 20.8687 20.9605 20.4516 21.3777C20.0297 21.7996 19.6313 22.0574 19.0734 22.273C18.6516 22.4371 18.0141 22.634 16.8469 22.6855C15.5813 22.7418 15.2016 22.7559 12 22.7559C8.79375 22.7559 8.41406 22.7418 7.15313 22.6855C5.98125 22.634 5.34844 22.4371 4.92656 22.273C4.36875 22.0574 3.96563 21.7949 3.54844 21.3777C3.12656 20.9559 2.86875 20.5574 2.65313 19.9996C2.48906 19.5777 2.29219 18.9402 2.24063 17.773C2.18438 16.5074 2.17031 16.1277 2.17031 12.9262C2.17031 9.71992 2.18438 9.34023 2.24063 8.0793C2.29219 6.90742 2.48906 6.27461 2.65313 5.85273C2.86875 5.29492 3.13125 4.8918 3.54844 4.47461C3.97031 4.05273 4.36875 3.79492 4.92656 3.5793C5.34844 3.41523 5.98594 3.21836 7.15313 3.1668C8.41406 3.11055 8.79375 3.09648 12 3.09648ZM12 0.935547C8.74219 0.935547 8.33438 0.949609 7.05469 1.00586C5.77969 1.06211 4.90313 1.26836 4.14375 1.56367C3.35156 1.87305 2.68125 2.28086 2.01563 2.95117C1.34531 3.6168 0.9375 4.28711 0.628125 5.07461C0.332812 5.83867 0.126563 6.71055 0.0703125 7.98555C0.0140625 9.26992 0 9.67773 0 12.9355C0 16.1934 0.0140625 16.6012 0.0703125 17.8809C0.126563 19.1559 0.332812 20.0324 0.628125 20.7918C0.9375 21.584 1.34531 22.2543 2.01563 22.9199C2.68125 23.5855 3.35156 23.998 4.13906 24.3027C4.90313 24.598 5.775 24.8043 7.05 24.8605C8.32969 24.9168 8.7375 24.9309 11.9953 24.9309C15.2531 24.9309 15.6609 24.9168 16.9406 24.8605C18.2156 24.8043 19.0922 24.598 19.8516 24.3027C20.6391 23.998 21.3094 23.5855 21.975 22.9199C22.6406 22.2543 23.0531 21.584 23.3578 20.7965C23.6531 20.0324 23.8594 19.1605 23.9156 17.8855C23.9719 16.6059 23.9859 16.198 23.9859 12.9402C23.9859 9.68242 23.9719 9.27461 23.9156 7.99492C23.8594 6.71992 23.6531 5.84336 23.3578 5.08398C23.0625 4.28711 22.6547 3.6168 21.9844 2.95117C21.3188 2.28555 20.6484 1.87305 19.8609 1.56836C19.0969 1.27305 18.225 1.0668 16.95 1.01055C15.6656 0.949609 15.2578 0.935547 12 0.935547Z" fill="#0B1E15"/>
<path d="M12 6.77148C8.59688 6.77148 5.83594 9.53242 5.83594 12.9355C5.83594 16.3387 8.59688 19.0996 12 19.0996C15.4031 19.0996 18.1641 16.3387 18.1641 12.9355C18.1641 9.53242 15.4031 6.77148 12 6.77148ZM12 16.934C9.79219 16.934 8.00156 15.1434 8.00156 12.9355C8.00156 10.7277 9.79219 8.93711 12 8.93711C14.2078 8.93711 15.9984 10.7277 15.9984 12.9355C15.9984 15.1434 14.2078 16.934 12 16.934Z" fill="#0B1E15"/>
<path d="M19.8469 6.52769C19.8469 7.32456 19.2 7.96675 18.4078 7.96675C17.6109 7.96675 16.9688 7.31988 16.9688 6.52769C16.9688 5.73081 17.6156 5.08862 18.4078 5.08862C19.2 5.08862 19.8469 5.7355 19.8469 6.52769Z" fill="#0B1E15"/>
</g>
<defs>
<clipPath id="clip0_1_2302">
<rect width="24" height="24" fill="white" transform="translate(0 0.935547)"/>
</clipPath>
</defs>
</svg>
